<svg width="42" height="42" viewBox="0 0 42 42" fill="none" xmlns="http://www.w3.org/2000/svg">
<path d="M39.6719 11.5094L33.6188 17.1969L39.7532 34.0766C39.8583 34.3682 39.8778 34.6838 39.8094 34.9861C39.741 35.2884 39.5876 35.5649 39.3672 35.7829L34.4922 40.6579C34.3216 40.8242 34.1172 40.952 33.893 41.0326C33.6687 41.1132 33.4297 41.1447 33.1922 41.125C32.9562 41.0986 32.7287 41.0214 32.5253 40.8987C32.3219 40.7759 32.1475 40.6106 32.0141 40.4141L23.361 27.7594L19.5422 31.2735V35.4375C19.5371 35.8723 19.3621 36.2878 19.0547 36.5954L14.9922 40.6579C14.8427 40.8067 14.6652 40.9246 14.47 41.0047C14.2748 41.0849 14.0657 41.1258 13.8547 41.125L13.4891 41.0844C13.219 41.0233 12.969 40.8942 12.7628 40.7094C12.5566 40.5245 12.4011 40.29 12.311 40.0282L9.69067 32.2891L1.95161 29.6688C1.68975 29.5787 1.45527 29.4232 1.27041 29.217C1.08555 29.0108 0.956448 28.7608 0.895362 28.4907C0.836419 28.2212 0.844487 27.9414 0.918857 27.6758C0.993227 27.4102 1.13163 27.1669 1.32192 26.9672L5.38442 22.9047C5.69399 22.6029 6.10991 22.4351 6.54224 22.4375H10.7469L14.5454 18.6188L1.56567 9.98599C1.37213 9.84484 1.20931 9.66582 1.0871 9.4598C0.964882 9.25378 0.885828 9.02507 0.854736 8.78755C0.83208 8.54675 0.862136 8.30391 0.942816 8.0759C1.0235 7.8479 1.15286 7.6402 1.32192 7.46724L6.19692 2.59224C6.41574 2.37318 6.69326 2.2221 6.99601 2.15723C7.29876 2.09235 7.61381 2.11645 7.90317 2.22661L24.7829 8.36099L30.186 2.63286C30.2426 2.54904 30.3111 2.47379 30.3891 2.40943C31.5805 1.24962 33.1711 0.590495 34.8337 0.567632C36.4963 0.544768 38.1044 1.15991 39.3272 2.28651C40.5501 3.41311 41.2948 4.96551 41.408 6.62437C41.5212 8.28323 40.9944 9.92242 39.936 11.2047C39.8643 11.3194 39.7753 11.4222 39.6719 11.5094Z" fill="#1E4C2F"/>
</svg>
